<?xml version="1.0" encoding="UTF-8" standalone="no"?>
<!-- Created with Inkscape (http://www.inkscape.org/) -->

<svg
   xmlns:dc="http://purl.org/dc/elements/1.1/"
   xmlns:cc="http://creativecommons.org/ns#"
   xmlns:rdf="http://www.w3.org/1999/02/22-rdf-syntax-ns#"
   xmlns:svg="http://www.w3.org/2000/svg"
   xmlns="http://www.w3.org/2000/svg"
   xmlns:sodipodi="http://sodipodi.sourceforge.net/DTD/sodipodi-0.dtd"
   xmlns:inkscape="http://www.inkscape.org/namespaces/inkscape"
   version="1.1"
   width="202.5"
   height="67.5"
   viewBox="135.829 229.889 202.49999 67.499997"
   id="Layer_1"
   xml:space="preserve"
   inkscape:version="0.48.3.1 r9886"
   sodipodi:docname="rackspace-logo-new.svg"><sodipodi:namedview
   pagecolor="#ffffff"
   bordercolor="#666666"
   borderopacity="1"
   objecttolerance="10"
   gridtolerance="10"
   guidetolerance="10"
   inkscape:pageopacity="0"
   inkscape:pageshadow="2"
   inkscape:window-width="1459"
   inkscape:window-height="959"
   id="namedview3306"
   showgrid="false"
   units="in"
   inkscape:zoom="2.8284271"
   inkscape:cx="138.19359"
   inkscape:cy="76.111504"
   inkscape:window-x="49"
   inkscape:window-y="24"
   inkscape:window-maximized="0"
   inkscape:current-layer="Layer_1" /><metadata
   id="metadata81"><rdf:RDF><cc:Work
       rdf:about=""><dc:format>image/svg+xml</dc:format><dc:type
         rdf:resource="http://purl.org/dc/dcmitype/StillImage" /><dc:title /></cc:Work></rdf:RDF></metadata><defs
   id="defs79" />
<g
   id="g3"
   transform="matrix(0.38207987,0,0,0.38207987,85.931229,146.33042)">
	<g
   id="g5">
		<g
   id="g7">
			<path
   d="m 190.682,259.349 c -2.07,4.366 -1.248,7.95 1.841,8.004 3.088,0.056 7.275,-3.437 9.343,-7.8 2.072,-4.368 1.249,-7.951 -1.841,-8.008 -3.088,-0.051 -7.273,3.442 -9.343,7.804 z m 25.17,-15.758 c 0.025,0.01 0.043,0.036 0.043,0.065 0,0.01 -0.002,0.019 -0.004,0.024 -1.846,5.232 -4.909,11.185 -7.945,15.7 -6.393,9.496 -15.572,15.482 -20.495,13.371 -4.921,-2.109 -3.737,-11.52 2.662,-21.019 1.441,-2.132 3.019,-4.086 4.656,-5.812 0.012,-0.013 0.021,-0.03 0.021,-0.051 0,-0.04 -0.034,-0.072 -0.072,-0.072 0,0 -0.009,0 -0.01,0.001 -2.011,0.278 -4.048,0.675 -6.105,1.196 -0.014,0.001 -0.028,0.012 -0.039,0.024 -21.603,26.493 -30.796,60.903 -29.531,91.598 v 0.002 c 0,0.041 -0.031,0.071 -0.072,0.071 -0.009,0 -0.019,0 -0.026,-0.003 -12.735,-5.135 -22.041,-17.438 -23.012,-33.015 l -0.012,-0.179 c -1.607,-27.715 20.486,-56.106 49.353,-63.414 11.185,-2.829 21.753,-2.083 30.588,1.513 z"
   id="path9"
   style="fill:#c50022"
   inkscape:connector-curvature="0" />
			<path
   d="m 207.685,318.338 c -2.099,1.457 -4.288,2.805 -6.549,4.019 -0.01,0.005 -0.022,0.009 -0.032,0.009 -0.04,0 -0.072,-0.031 -0.074,-0.07 -0.422,-6.653 -1.855,-13.1 -4.333,-18.465 -6.609,-14.318 -18.159,-15.419 -25.792,-2.456 -4.667,7.933 -6.795,19.3 -6.22,30.21 0,0.032 0.021,0.058 0.05,0.066 8.097,2.534 17.423,2.814 27.375,0.303 28.826,-7.344 50.875,-35.704 49.272,-63.392 -1.412,-24.321 -20.596,-40.036 -44.779,-38.579 -0.017,0 -0.033,0.008 -0.045,0.021 -2.351,2.379 -4.553,4.781 -6.619,7.207 -0.01,0.012 -0.016,0.029 -0.016,0.044 0,0.041 0.032,0.075 0.072,0.075 0.001,0 0.006,0 0.01,-0.001 14.171,-1.795 25.53,1.084 32.941,6.991 0.018,0.012 0.027,0.033 0.027,0.055 0,0.014 -0.004,0.029 -0.01,0.04 -25.539,36.004 -22.378,56.516 -15.253,73.84 0.004,0.008 0.006,0.016 0.006,0.025 0,0.024 -0.012,0.046 -0.031,0.058 z"
   id="path11"
   inkscape:connector-curvature="0" />
		</g>
		<g
   id="g13">
			<g
   id="g15">
				<path
   d="m 531.449,291.219 c -3.937,3.939 -6.895,11.337 -6.89,17.228 0.003,5.169 1.921,8.389 5.251,8.389 5.334,0 9.929,-5.577 11.511,-13.744 0.354,-1.824 0.714,-3.681 0.972,-5.331 0.258,-1.65 0.42,-3.105 0.37,-4.122 -0.167,-3.486 -1.986,-5.369 -5.24,-5.369 -1.993,-10e-4 -4.057,1.031 -5.974,2.949 z m 5.441,36.422 c -0.017,-0.019 -0.021,-0.041 -0.017,-0.06 l 1.22,-6.179 c 0.018,-0.097 -0.034,-0.171 -0.118,-0.188 -0.069,-0.012 -0.13,0.024 -0.162,0.081 -2.693,4.565 -7.972,7.479 -13.905,7.479 -9.743,0 -14.143,-8.646 -14.146,-17.301 -0.009,-9.831 3.854,-19.564 10.323,-26.038 5.419,-5.422 12.412,-8.288 20.23,-8.288 5.946,0.026 10.344,1.746 13.103,5.087 4.083,4.945 3.746,12.369 2.729,17.767 l -5.274,27.606 c -0.007,0.033 -0.037,0.058 -0.071,0.058 h -13.854 c -0.024,10e-4 -0.046,-0.009 -0.058,-0.024 z"
   id="path17"
   inkscape:connector-curvature="0" />
				<path
   d="m 445.903,277.149 c 6.027,0 10.48,1.312 12.632,2.528 0.024,0.014 0.041,0.044 0.034,0.075 l -2.08,10.917 c -0.004,0.024 -0.021,0.041 -0.041,0.051 -0.021,0.01 -0.045,0.01 -0.065,-0.001 -2.438,-1.327 -6.653,-2.745 -11.182,-2.745 -3.802,0 -6.275,1.592 -6.275,4.258 0,1.91 1.896,3.623 5.903,5.577 5.224,2.61 11.124,6.476 11.124,13.464 0,4.561 -1.522,8.375 -4.52,11.347 -3.984,3.954 -10.449,6.112 -18.226,6.052 -5.979,-0.097 -12.025,-1.647 -15.055,-3.84 -0.021,-0.017 -0.032,-0.046 -0.027,-0.073 l 2.086,-10.982 c 0.005,-0.022 0.022,-0.043 0.043,-0.054 0.023,-0.009 0.048,-0.007 0.068,0.005 3.237,2.031 9.617,4.222 14.297,4.222 3.628,0 6.072,-1.674 6.072,-4.359 0,-2.434 -1.719,-4.135 -6.106,-6.28 -6.941,-3.473 -10.416,-7.872 -10.416,-13.059 0.002,-10.207 8.692,-17.103 21.734,-17.103 z"
   id="path19"
   inkscape:connector-curvature="0" />
				<path
   d="m 590.769,277.251 c 3.699,0 7.478,0.644 10.102,1.719 0.033,0.012 0.051,0.046 0.046,0.082 l -2.243,11.757 c -0.003,0.022 -0.019,0.043 -0.041,0.051 -0.021,0.01 -0.044,0.01 -0.063,-0.001 -2.265,-1.266 -4.883,-1.876 -8.001,-1.876 -10.435,0 -16.651,9.094 -16.651,17.859 0,7.438 4.967,10.104 9.6,10.104 4.142,0 7.659,-0.904 12.128,-3.105 0.025,-0.012 0.058,-0.011 0.077,0.007 0.022,0.017 0.032,0.044 0.029,0.071 l -2.291,12.078 c -0.004,0.021 -0.019,0.041 -0.039,0.052 -3.39,1.64 -8.637,2.625 -14.034,2.625 -12.666,0 -20.828,-7.933 -20.828,-20.217 -0.004,-17.791 13.836,-31.206 32.209,-31.206 z"
   id="path21"
   inkscape:connector-curvature="0" />
				<path
   d="m 364.538,277.251 c 3.702,0 7.478,0.644 10.101,1.719 0.033,0.012 0.051,0.046 0.045,0.082 l -2.241,11.757 c -0.005,0.022 -0.021,0.043 -0.041,0.051 -0.022,0.01 -0.046,0.01 -0.066,-0.001 -2.262,-1.266 -4.881,-1.876 -8.001,-1.876 -10.434,0 -16.65,9.094 -16.65,17.859 0,7.438 4.968,10.104 9.599,10.104 4.141,0 7.657,-0.904 12.128,-3.105 0.027,-0.012 0.056,-0.011 0.078,0.007 0.022,0.017 0.033,0.044 0.027,0.071 l -2.288,12.078 c -0.004,0.021 -0.021,0.041 -0.041,0.052 -3.39,1.64 -8.637,2.625 -14.035,2.625 -12.664,0 -20.826,-7.933 -20.826,-20.217 0,-17.791 13.84,-31.206 32.211,-31.206 z"
   id="path23"
   inkscape:connector-curvature="0" />
				<path
   d="m 285.961,277.048 c 0.867,0 1.933,0.092 2.714,0.234 0.018,0.003 0.034,0.016 0.046,0.031 0.01,0.019 0.016,0.038 0.01,0.057 l -2.82,14.205 c -0.004,0.017 -0.014,0.034 -0.03,0.044 -0.017,0.012 -0.037,0.014 -0.056,0.012 -0.513,-0.106 -1.327,-0.23 -2.283,-0.23 -9.952,0 -13.834,9.728 -15.342,17.771 l -3.534,18.913 c -0.009,0.034 -0.037,0.06 -0.072,0.06 h -14.508 c -0.023,0 -0.043,-0.011 -0.056,-0.026 -0.014,-0.017 -0.021,-0.039 -0.016,-0.062 l 9.478,-49.834 c 0.007,-0.036 0.038,-0.06 0.072,-0.06 l 12.76,-0.001 c 0.023,0 0.043,0.007 0.058,0.025 0.011,0.012 0.017,0.029 0.017,0.046 l -1.628,8.564 c -0.012,0.058 0,0.133 0.074,0.171 0.075,0.039 0.155,0.014 0.207,-0.063 3.809,-6.331 9.079,-9.857 14.909,-9.857 z"
   id="path25"
   inkscape:connector-curvature="0" />
				<path
   d="m 305.22,291.219 c -3.937,3.939 -6.893,11.337 -6.889,17.228 10e-4,5.169 1.918,8.389 5.25,8.389 5.335,0 9.928,-5.577 11.508,-13.744 0.355,-1.824 0.714,-3.681 0.972,-5.331 0.26,-1.65 0.42,-3.105 0.373,-4.122 -0.169,-3.486 -1.986,-5.369 -5.241,-5.369 -1.992,-10e-4 -4.056,1.031 -5.973,2.949 z m 5.439,36.422 c -0.015,-0.019 -0.019,-0.041 -0.015,-0.06 l 1.219,-6.179 c 0.017,-0.097 -0.034,-0.171 -0.121,-0.188 -0.067,-0.012 -0.129,0.024 -0.16,0.081 -2.695,4.565 -7.972,7.479 -13.908,7.479 -9.741,0 -14.142,-8.646 -14.147,-17.301 -0.006,-9.831 3.855,-19.564 10.325,-26.038 5.417,-5.422 12.412,-8.288 20.229,-8.288 5.948,0.026 10.347,1.746 13.104,5.087 4.081,4.945 3.747,12.369 2.728,17.767 l -5.274,27.606 c -0.006,0.033 -0.035,0.058 -0.072,0.058 h -13.853 c -0.021,10e-4 -0.041,-0.009 -0.055,-0.024 z"
   id="path27"
   inkscape:connector-curvature="0" />
				<path
   d="m 480.185,317.649 c 7.698,0 13.354,-10.932 13.354,-20.579 0,-2.328 -0.55,-7.987 -5.919,-7.987 -5.459,0 -10.067,6.221 -11.854,15.653 -0.614,3.229 -2.326,12.913 4.419,12.913 z m 12.606,-40.5 c 9.698,0 15.989,7.354 15.989,18.813 0,12.017 -5.771,24.341 -16.171,29.886 -9.476,5.052 -17.94,2.836 -20.602,-1.122 -0.003,-0.007 -0.015,-0.007 -0.015,0.003 l -3.541,18.718 c -0.006,0.031 -0.036,0.06 -0.072,0.06 h -14.512 c -0.021,0 -0.041,-0.011 -0.055,-0.027 -0.015,-0.016 -0.021,-0.039 -0.015,-0.06 l 12.455,-65.513 c 0.007,-0.032 0.038,-0.06 0.072,-0.06 l 12.762,0.008 c 0.021,0 0.041,0.01 0.056,0.026 0.015,0.019 0.019,0.042 0.015,0.06 l -1.268,6.67 c -0.014,0.073 -0.008,0.162 0.066,0.193 0.069,0.029 0.146,0.003 0.203,-0.07 l 0.062,-0.081 c 3.739,-4.797 9.019,-7.504 14.571,-7.504 z"
   id="path29"
   inkscape:connector-curvature="0" />
				<path
   d="m 384.049,260.823 h 14.411 c 0.021,0 0.041,0.01 0.055,0.027 0.015,0.021 0.02,0.041 0.015,0.062 l -7.516,39.54 c -0.003,0.024 10e-4,0.049 0.027,0.06 0.022,0.012 0.049,0.003 0.065,-0.015 l 19.347,-22.312 c 0.014,-0.015 0.034,-0.024 0.055,-0.024 h 15.804 c 0.029,0 0.056,0.016 0.068,0.043 0.003,0.01 0.007,0.021 0.007,0.031 0,0.017 -0.007,0.034 -0.021,0.048 l -20.072,22.612 12.245,26.574 c 0.005,0.01 0.005,0.02 0.005,0.029 0,0.014 -0.003,0.027 -0.008,0.037 -0.017,0.023 -0.038,0.036 -0.062,0.036 H 402.87 c -0.027,0 -0.055,-0.018 -0.068,-0.043 l -11.844,-26.269 c -0.008,-0.024 -0.029,-0.036 -0.054,-0.034 -0.025,0.003 -0.041,0.019 -0.047,0.044 l -4.987,26.241 c -0.008,0.034 -0.037,0.061 -0.072,0.061 h -14.41 c -0.022,0 -0.042,-0.011 -0.056,-0.027 -0.016,-0.019 -0.019,-0.041 -0.016,-0.06 l 12.663,-66.602 c 0.004,-0.035 0.035,-0.059 0.07,-0.059 z"
   id="path31"
   inkscape:connector-curvature="0" />
				<path
   d="m 630.427,292.032 c 0,-2.549 -2.11,-4.158 -5.267,-4.158 -6.259,0 -10.274,5.063 -11.444,9.841 l -0.041,0.174 c -0.002,10e-4 -0.002,0.005 0,0.01 0.003,10e-4 0.005,0.003 0.01,0.003 h 0.181 c 8.48,0.056 13.266,-0.815 15.358,-2.892 0.809,-0.802 1.203,-1.781 1.203,-2.978 z m -3.454,-14.881 c 10.317,0 17.201,5.994 17.201,14.881 0,4.11 -1.339,7.49 -3.974,10.059 -4.83,4.708 -13.904,6.866 -27.788,6.54 l -0.157,-0.002 c 0,-0.004 -0.003,0 -0.003,0 -0.002,0.002 -0.002,0.002 -0.002,0.003 l 0.005,0.156 c 0.048,1.431 0.544,3.448 1.476,4.753 1.896,2.398 5.254,3.705 9.414,3.705 6.083,0 11.354,-1.479 17.083,-4.78 0.024,-0.014 0.056,-0.013 0.079,0.003 0.023,0.018 0.034,0.046 0.03,0.071 l -2.311,12.146 c -0.005,0.021 -0.021,0.039 -0.036,0.05 -6.979,3.554 -15.168,3.938 -18.371,3.938 -13.638,0 -21.434,-7.583 -21.434,-20.826 0,-7.634 2.805,-15.286 7.688,-20.99 5.362,-6.26 12.856,-9.707 21.1,-9.707 z"
   id="path33"
   inkscape:connector-curvature="0" />
			</g>
			<path
   d="m 644.237,322.511 c -0.272,3.021 1.932,5.438 4.945,5.438 3.075,0 5.819,-2.516 6.094,-5.593 0.272,-3.025 -1.933,-5.442 -4.946,-5.442 -3.071,-10e-4 -5.814,2.512 -6.093,5.597 z m -0.866,-0.076 c 0.318,-3.53 3.434,-6.393 6.959,-6.393 3.529,0 6.132,2.861 5.815,6.393 -0.318,3.525 -3.436,6.386 -6.963,6.386 -3.526,-0.001 -6.129,-2.861 -5.811,-6.386 z m 4.987,-3.771 c 0.004,-0.016 0.018,-0.027 0.03,-0.027 h 1.603 l 0.016,0.002 c 0.41,0.008 0.683,0.01 0.89,0.025 0.279,0.021 0.49,0.062 0.709,0.139 0.812,0.271 1.273,0.915 1.273,1.735 0,0.14 -0.014,0.289 -0.045,0.438 -0.188,1.01 -0.821,1.829 -1.995,2.15 l 1.028,3.028 c 0,0.004 0.002,0.005 0.002,0.011 0,0.005 -0.002,0.012 -0.007,0.015 -0.005,0.012 -0.015,0.017 -0.024,0.017 h -1.042 c -0.012,0 -0.022,-0.01 -0.028,-0.021 l -0.979,-2.885 -0.643,0.016 h -0.021 -0.707 l -0.54,2.864 c -0.002,0.016 -0.016,0.025 -0.031,0.025 h -0.861 c -0.009,0 -0.02,-0.005 -0.023,-0.013 -0.004,-0.007 -0.009,-0.016 -0.009,-0.024 l 0.545,-2.892 0.007,-0.036 0.429,-2.268 0.423,-2.299 z m 1.463,0.9 h -0.704 l -0.262,1.41 -0.266,1.402 h 0.688 0.08 c 0.354,-0.005 0.588,-0.011 0.776,-0.021 0.207,-0.015 0.36,-0.043 0.528,-0.095 0.664,-0.192 1.132,-0.677 1.247,-1.297 0.115,-0.61 -0.164,-1.093 -0.756,-1.282 -0.148,-0.055 -0.283,-0.081 -0.488,-0.096 -0.185,-0.013 -0.417,-0.014 -0.769,-0.021 h -0.074 z"
   id="path35"
   inkscape:connector-curvature="0" />
		</g>
	</g>
	<g
   id="g37">
		<path
   d="m 414.376,376.602 h -4.089 c -0.022,0 -0.043,-0.011 -0.059,-0.025 -0.013,-0.02 -0.018,-0.039 -0.015,-0.062 l 4.687,-24.677 c 0.007,-0.034 0.035,-0.061 0.071,-0.061 h 4.092 c 0.022,0 0.044,0.011 0.058,0.026 0.013,0.019 0.02,0.038 0.014,0.062 l -4.687,24.677 c -0.007,0.033 -0.038,0.06 -0.072,0.06 z"
   id="path39"
   inkscape:connector-curvature="0" />
		<path
   d="m 555.41,376.602 h -2.604 c -0.021,0 -0.043,-0.011 -0.057,-0.025 -0.014,-0.02 -0.021,-0.039 -0.016,-0.062 l 1.892,-9.902 c 0.092,-0.583 0.126,-1.383 0.08,-1.94 -0.173,-2.246 -1.604,-3.586 -3.828,-3.586 -2.545,0 -4.923,2.402 -5.538,5.586 l -1.824,9.871 c -0.007,0.034 -0.036,0.061 -0.072,0.061 h -2.604 c -0.021,0 -0.042,-0.011 -0.056,-0.025 -0.015,-0.02 -0.021,-0.039 -0.017,-0.062 l 1.86,-9.902 c 0.114,-0.536 0.16,-1.334 0.112,-1.94 -0.173,-2.212 -1.653,-3.586 -3.862,-3.586 -2.543,0 -4.925,2.402 -5.536,5.586 l -1.861,9.871 c -0.007,0.034 -0.037,0.061 -0.071,0.061 h -2.604 c -0.021,0 -0.043,-0.011 -0.059,-0.025 -0.013,-0.02 -0.018,-0.039 -0.015,-0.062 l 3.292,-17.476 c 0.008,-0.034 0.037,-0.061 0.071,-0.061 h 2.604 c 0.021,0 0.043,0.011 0.058,0.025 0.013,0.017 0.02,0.039 0.014,0.062 l -0.47,2.557 c 1.512,-1.818 3.042,-3.019 5.439,-3.019 2.521,0 4.491,1.438 5.298,3.851 1.493,-2.521 3.807,-3.851 6.703,-3.851 3.234,0 5.582,2.201 5.839,5.479 0.053,0.665 -0.065,1.441 -0.183,2.191 -0.026,0.178 -0.053,0.354 -0.08,0.529 l -1.838,9.737 c -0.002,0.03 -0.034,0.057 -0.067,0.057 z"
   id="path41"
   inkscape:connector-curvature="0" />
		<path
   d="m 615.106,376.602 h -2.604 c -0.021,0 -0.043,-0.011 -0.058,-0.025 -0.014,-0.02 -0.021,-0.039 -0.015,-0.062 l 1.856,-9.902 c 0.114,-0.54 0.162,-1.338 0.114,-1.94 -0.177,-2.246 -1.723,-3.586 -4.135,-3.586 -2.727,0 -5.166,2.35 -5.808,5.586 l -1.86,9.871 c -0.007,0.034 -0.036,0.061 -0.07,0.061 h -2.604 c -0.022,0 -0.045,-0.011 -0.059,-0.025 -0.014,-0.02 -0.02,-0.039 -0.014,-0.062 l 3.29,-17.476 c 0.007,-0.034 0.037,-0.061 0.071,-0.061 h 2.604 c 0.022,0 0.044,0.011 0.058,0.025 0.014,0.017 0.02,0.039 0.014,0.062 l -0.468,2.559 c 1.274,-1.528 2.958,-3.021 5.71,-3.021 3.431,0 5.812,2.15 6.076,5.479 0.053,0.693 -0.019,1.56 -0.228,2.725 l -1.805,9.734 c 0,0.031 -0.03,0.058 -0.065,0.058 z"
   id="path43"
   inkscape:connector-curvature="0" />
		<path
   d="m 620.14,382.111 c -1.431,0 -2.687,-0.392 -3.956,-1.229 -0.031,-0.021 -0.042,-0.067 -0.021,-0.103 l 1.268,-1.95 c 0.012,-0.019 0.027,-0.029 0.048,-0.033 0.024,0 0.041,0 0.058,0.014 0.649,0.48 1.834,0.856 2.695,0.856 1.562,0 2.793,-0.912 4.231,-3.15 l -4.541,-17.444 c -0.006,-0.022 0,-0.046 0.014,-0.064 0.013,-0.018 0.033,-0.026 0.059,-0.026 h 2.7 c 0.036,0 0.062,0.021 0.071,0.056 l 3.537,14.417 8.158,-14.437 c 0.014,-0.022 0.038,-0.036 0.065,-0.036 h 2.941 c 0.026,0 0.052,0.014 0.063,0.034 0.012,0.024 0.012,0.053 0,0.074 l -10.548,18.079 c -2.136,3.512 -4.118,4.942 -6.842,4.942 z"
   id="path45"
   inkscape:connector-curvature="0" />
		<path
   d="m 498.688,377.008 c -3.868,0 -7.986,-2.646 -8.367,-7.709 -0.211,-2.812 0.746,-5.594 2.623,-7.627 1.797,-1.949 4.315,-3.066 6.907,-3.066 4.244,0 6.407,2.588 7.317,4.128 0.021,0.032 0.011,0.076 -0.022,0.1 l -1.992,1.316 c -0.03,0.021 -0.08,0.016 -0.104,-0.021 -0.963,-1.433 -2.427,-3.076 -5.196,-3.076 -1.729,0 -3.434,0.791 -4.672,2.173 -1.472,1.6 -2.224,3.783 -2.055,5.997 0.262,3.507 2.978,5.341 5.524,5.341 1.808,0 3.328,-0.702 4.935,-2.278 0.016,-0.012 0.034,-0.021 0.052,-0.021 l 0,0 c 0.021,0 0.039,0.01 0.056,0.022 l 1.643,1.689 c 0.027,0.029 0.027,0.073 0,0.104 -1.968,1.997 -4.079,2.928 -6.649,2.928 z"
   id="path47"
   inkscape:connector-curvature="0" />
		<path
   d="m 446.519,376.976 c -3.347,0 -5.676,-2.125 -5.936,-5.409 -0.072,-0.934 0.099,-2.072 0.297,-3.163 l 1.838,-9.736 c 0.007,-0.036 0.038,-0.062 0.072,-0.062 h 4.089 c 0.023,0 0.045,0.01 0.059,0.026 0.013,0.018 0.02,0.039 0.015,0.061 l -1.893,9.906 c -0.097,0.549 -0.135,1.276 -0.094,1.771 0.135,1.74 1.31,2.738 3.222,2.738 2.213,0 3.969,-1.728 4.479,-4.402 l 1.918,-10.038 c 0.007,-0.036 0.038,-0.062 0.072,-0.062 h 4.089 c 0.021,0 0.043,0.01 0.059,0.026 0.013,0.018 0.02,0.039 0.015,0.061 l -3.365,17.85 c -0.007,0.034 -0.038,0.062 -0.071,0.062 h -4.09 c -0.022,0 -0.043,-0.012 -0.058,-0.026 -0.014,-0.02 -0.021,-0.039 -0.015,-0.062 l 0.379,-2.049 c -1.148,1.202 -2.746,2.508 -5.081,2.508 z"
   id="path49"
   inkscape:connector-curvature="0" />
		<path
   d="m 401.146,377.008 c -4.847,0 -8.477,-3.295 -8.831,-8.015 -0.213,-2.854 0.707,-5.552 2.592,-7.591 1.856,-2.015 4.483,-3.169 7.203,-3.169 4.117,0 6.396,2.226 7.585,4.091 0.021,0.033 0.014,0.077 -0.019,0.1 l -3.01,2.164 c -0.014,0.012 -0.041,0.01 -0.055,0.014 -0.021,-0.005 -0.037,-0.016 -0.048,-0.03 -0.953,-1.371 -2.16,-2.64 -4.526,-2.64 -1.354,0 -2.709,0.63 -3.729,1.732 -1.268,1.414 -1.916,3.341 -1.771,5.286 0.191,2.547 2.075,4.394 4.479,4.394 1.61,0 2.87,-0.569 4.354,-1.973 0.014,-0.014 0.034,-0.021 0.051,-0.021 0.021,0 0.039,0.01 0.055,0.025 l 2.361,2.67 c 0.027,0.029 0.023,0.075 -0.006,0.102 -1.447,1.414 -3.374,2.861 -6.685,2.861 z"
   id="path51"
   inkscape:connector-curvature="0" />
		<path
   d="m 379.243,376.602 h -4.089 c -0.023,0 -0.043,-0.011 -0.058,-0.025 -0.012,-0.02 -0.019,-0.039 -0.014,-0.062 l 1.856,-9.902 c 0.117,-0.543 0.17,-1.254 0.129,-1.773 -0.138,-1.738 -1.324,-2.738 -3.257,-2.738 -2.21,0 -3.969,1.729 -4.481,4.402 l -1.881,10.04 c -0.007,0.034 -0.038,0.061 -0.072,0.061 h -4.122 c -0.023,0 -0.044,-0.011 -0.058,-0.025 -0.012,-0.02 -0.019,-0.039 -0.014,-0.062 l 3.363,-17.848 c 0.006,-0.036 0.037,-0.062 0.072,-0.062 h 4.089 c 0.022,0 0.042,0.011 0.057,0.027 0.013,0.018 0.018,0.039 0.015,0.061 l -0.384,2.021 c 1.158,-1.192 2.776,-2.479 5.119,-2.479 3.327,0 5.641,2.123 5.902,5.409 0.075,0.969 -0.113,2.141 -0.296,3.163 l -1.805,9.734 c -0.006,0.031 -0.037,0.058 -0.071,0.058 z"
   id="path53"
   inkscape:connector-curvature="0" />
		<path
   d="m 269.702,376.602 h -2.604 c -0.023,0 -0.043,-0.011 -0.057,-0.025 -0.013,-0.02 -0.019,-0.039 -0.015,-0.062 l 1.859,-9.902 c 0.114,-0.536 0.162,-1.334 0.113,-1.94 -0.176,-2.246 -1.72,-3.586 -4.133,-3.586 -2.728,0 -5.169,2.35 -5.807,5.586 l -1.861,9.871 c -0.006,0.034 -0.037,0.061 -0.072,0.061 h -2.603 c -0.023,0 -0.044,-0.011 -0.058,-0.025 -0.013,-0.02 -0.019,-0.039 -0.014,-0.062 l 4.686,-24.677 c 0.005,-0.034 0.036,-0.061 0.071,-0.061 h 2.604 c 0.022,0 0.042,0.011 0.056,0.026 0.013,0.019 0.019,0.038 0.015,0.062 l -1.859,9.757 c 1.271,-1.527 2.957,-3.018 5.705,-3.018 3.428,0 5.813,2.15 6.078,5.479 0.051,0.695 -0.021,1.562 -0.229,2.725 l -1.804,9.734 c -0.005,0.03 -0.036,0.057 -0.071,0.057 z"
   id="path55"
   inkscape:connector-curvature="0" />
		<path
   d="m 282.823,377.008 c -4.672,0 -8.045,-3.017 -8.401,-7.504 -0.226,-2.878 0.789,-5.844 2.714,-7.935 1.787,-1.938 4.1,-2.966 6.688,-2.966 4.716,0 7.094,3.397 7.358,6.764 0.088,1.107 -0.029,2.229 -0.351,3.339 -0.008,0.031 -0.037,0.053 -0.069,0.053 H 277.14 c -0.008,0.188 0.006,0.378 0.018,0.562 l 0.007,0.067 c 0.248,3.161 2.453,5.204 5.617,5.204 2.319,0 3.741,-0.815 5.163,-2.043 0.013,-0.012 0.028,-0.019 0.047,-0.019 0.029,0.005 0.043,0.011 0.056,0.024 l 1.489,1.725 c 0.026,0.03 0.022,0.077 -0.007,0.103 -1.351,1.223 -3.335,2.626 -6.707,2.626 z m -5.475,-10.357 h 11.105 c 0.072,-0.321 0.089,-0.75 0.048,-1.272 -0.169,-2.143 -1.476,-4.43 -4.641,-4.43 -1.757,0 -3.363,0.716 -4.649,2.074 -0.877,0.952 -1.519,2.206 -1.863,3.628 z"
   id="path57"
   inkscape:connector-curvature="0" />
		<path
   d="m 248.054,376.907 c -2.703,0 -4.415,-1.315 -4.581,-3.52 -0.041,-0.562 -0.004,-1.232 0.102,-1.842 l 1.95,-10.124 h -2.306 c -0.023,0 -0.043,-0.011 -0.057,-0.024 -0.012,-0.021 -0.019,-0.04 -0.015,-0.062 l 0.435,-2.298 c 0.006,-0.034 0.037,-0.061 0.072,-0.061 h 2.368 l 1.01,-5.215 c 0.006,-0.034 0.037,-0.061 0.072,-0.061 h 2.562 c 0.022,0 0.044,0.011 0.058,0.026 0.012,0.019 0.019,0.04 0.015,0.062 l -1.005,5.187 h 5.409 c 0.023,0 0.043,0.011 0.058,0.025 0.012,0.017 0.018,0.039 0.014,0.062 l -0.434,2.298 c -0.007,0.034 -0.038,0.06 -0.072,0.06 h -5.436 l -1.933,10.016 c -0.027,0.292 -0.068,0.854 -0.038,1.264 0.106,1.427 1.394,1.726 2.456,1.726 0.787,0 1.613,-0.18 2.46,-0.534 0.022,-0.013 0.051,-0.007 0.075,0.011 0.021,0.018 0.031,0.045 0.025,0.07 l -0.464,2.366 c -0.004,0.022 -0.021,0.043 -0.043,0.054 -0.853,0.36 -1.679,0.514 -2.757,0.514 z"
   id="path59"
   inkscape:connector-curvature="0" />
		<path
   d="m 428.619,377.008 c -4.979,0 -8.717,-3.379 -9.098,-8.216 -0.215,-2.703 0.728,-5.41 2.584,-7.426 1.823,-2.02 4.337,-3.133 7.076,-3.133 2.494,0 4.688,0.808 6.34,2.335 1.597,1.478 2.576,3.576 2.762,5.914 0.216,2.716 -0.729,5.41 -2.588,7.393 -1.826,2.02 -4.34,3.133 -7.076,3.133 z m 0.607,-15.076 c -1.382,0 -2.722,0.604 -3.767,1.699 -1.201,1.271 -1.886,3.237 -1.746,5.017 0.229,2.876 2.093,4.662 4.865,4.662 1.431,0 2.803,-0.617 3.763,-1.698 1.199,-1.266 1.884,-3.233 1.747,-5.019 -0.227,-2.874 -2.092,-4.661 -4.862,-4.661 z"
   id="path61"
   inkscape:connector-curvature="0" />
		<path
   d="m 517.347,377.008 c -4.716,0 -8.268,-3.254 -8.633,-7.91 -0.214,-2.72 0.729,-5.413 2.586,-7.394 1.816,-1.969 4.349,-3.101 6.945,-3.101 4.737,0 8.302,3.24 8.666,7.879 0.21,2.673 -0.733,5.379 -2.585,7.424 -1.815,1.971 -4.357,3.102 -6.979,3.102 z m 0.911,-15.956 c -1.765,0 -3.451,0.772 -4.744,2.175 -1.428,1.55 -2.185,3.716 -2.021,5.79 0.267,3.399 2.504,5.512 5.842,5.512 1.787,0 3.473,-0.761 4.745,-2.14 1.427,-1.551 2.184,-3.717 2.021,-5.794 -0.268,-3.42 -2.507,-5.543 -5.843,-5.543 z"
   id="path63"
   inkscape:connector-curvature="0" />
		<path
   d="m 561.236,382.011 h -2.604 c -0.021,0 -0.041,-0.01 -0.057,-0.026 -0.013,-0.018 -0.02,-0.037 -0.016,-0.061 l 4.321,-22.886 c 0.007,-0.034 0.037,-0.061 0.072,-0.061 h 2.603 c 0.022,0 0.043,0.011 0.06,0.025 0.012,0.017 0.017,0.039 0.014,0.062 l -0.52,2.723 c 1.788,-2.142 3.828,-3.185 6.23,-3.185 4.121,0 7.24,3.072 7.588,7.472 0.237,3.05 -0.722,5.991 -2.636,8.068 -1.7,1.848 -3.97,2.863 -6.391,2.863 -3.807,0 -5.825,-2.229 -6.863,-4.178 l -1.732,9.121 c -0.002,0.037 -0.034,0.063 -0.069,0.063 z m 9.545,-20.959 c -1.817,0 -3.616,0.843 -4.935,2.309 -1.513,1.64 -2.287,3.764 -2.121,5.827 0.241,3.114 2.665,5.375 5.761,5.375 1.731,0 3.36,-0.713 4.588,-2.006 1.45,-1.606 2.173,-3.881 1.986,-6.229 -0.245,-3.156 -2.368,-5.276 -5.279,-5.276 z"
   id="path65"
   inkscape:connector-curvature="0" />
		<path
   d="m 586.984,376.972 c -2.703,0 -5.732,-1.532 -5.999,-4.899 -0.128,-1.658 0.337,-3.115 1.352,-4.212 1.297,-1.411 3.429,-2.188 6.003,-2.188 1.896,0 3.938,0.304 6.232,0.928 l 0.059,-0.325 c 0.1,-0.533 0.145,-1.162 0.109,-1.604 -0.183,-2.278 -1.893,-3.482 -4.94,-3.482 -2.028,0 -3.584,0.458 -4.839,0.908 -0.021,0.003 -0.039,0.003 -0.057,-0.005 -0.02,-0.009 -0.032,-0.025 -0.039,-0.047 l -0.61,-2.162 c -0.012,-0.036 0.011,-0.073 0.045,-0.087 1.897,-0.729 3.662,-1.056 5.727,-1.056 4.402,0 7.087,1.997 7.361,5.478 0.056,0.731 -0.011,1.591 -0.187,2.423 l -1.856,9.901 c -0.007,0.034 -0.038,0.062 -0.071,0.062 h -2.538 c -0.023,0 -0.044,-0.012 -0.059,-0.026 -0.013,-0.02 -0.018,-0.041 -0.014,-0.062 l 0.473,-2.451 c -1.624,1.927 -3.695,2.906 -6.152,2.906 z m 1.607,-9.228 c -1.702,0 -3.104,0.508 -3.955,1.43 -0.662,0.687 -0.97,1.577 -0.888,2.581 0.144,1.849 1.67,3.043 3.89,3.043 3.06,0 5.803,-2.213 6.38,-5.146 l 0.23,-1.149 c -1.753,-0.49 -3.76,-0.759 -5.657,-0.759 z"
   id="path67"
   inkscape:connector-curvature="0" />
		<path
   d="m 467.945,376.976 c -4.207,0 -7.274,-3.099 -7.638,-7.711 -0.243,-3.113 0.688,-5.989 2.632,-8.102 1.718,-1.862 4.094,-2.93 6.521,-2.93 2.716,0 4.766,1.122 6.257,3.427 l 1.851,-9.823 c 0.005,-0.034 0.036,-0.061 0.071,-0.061 h 4.092 c 0.021,0 0.043,0.011 0.057,0.026 0.014,0.019 0.019,0.038 0.015,0.062 l -4.651,24.677 c -0.008,0.034 -0.038,0.061 -0.072,0.061 h -4.091 c -0.023,0 -0.045,-0.011 -0.06,-0.025 -0.012,-0.02 -0.019,-0.041 -0.014,-0.062 l 0.405,-2.109 c -1.644,1.749 -3.357,2.57 -5.375,2.57 z m 2.264,-15.08 c -1.438,0 -2.786,0.604 -3.801,1.7 -1.252,1.358 -1.877,3.321 -1.717,5.387 0.209,2.629 1.985,4.326 4.532,4.326 1.493,0 2.948,-0.668 3.989,-1.835 1.293,-1.401 1.95,-3.276 1.802,-5.146 -0.2,-2.609 -2.176,-4.432 -4.805,-4.432 z"
   id="path69"
   inkscape:connector-curvature="0" />
		<path
   d="m 325.11,382.011 h -4.124 c -0.023,0 -0.043,-0.01 -0.057,-0.026 -0.013,-0.018 -0.019,-0.037 -0.015,-0.061 l 4.391,-23.258 c 0.006,-0.036 0.037,-0.062 0.072,-0.062 h 4.091 c 0.022,0 0.042,0.011 0.057,0.027 0.013,0.018 0.019,0.039 0.014,0.062 l -0.408,2.115 c 1.698,-1.779 3.366,-2.575 5.379,-2.575 4.204,0 7.273,3.097 7.637,7.707 0.245,3.118 -0.692,5.995 -2.636,8.102 -1.713,1.862 -4.075,2.93 -6.48,2.93 -2.702,0 -4.82,-1.15 -6.294,-3.425 l -1.555,8.404 c -0.007,0.034 -0.038,0.06 -0.072,0.06 z m 8.154,-20.115 c -1.505,0 -2.934,0.651 -4.026,1.837 -1.272,1.382 -1.917,3.259 -1.767,5.148 0.202,2.566 2.21,4.428 4.774,4.428 1.454,0 2.837,-0.617 3.798,-1.698 1.275,-1.348 1.886,-3.261 1.718,-5.387 -0.207,-2.628 -1.971,-4.328 -4.497,-4.328 z"
   id="path71"
   inkscape:connector-curvature="0" />
		<path
   d="m 353.296,377.008 c -5.047,0 -8.417,-3.019 -8.8,-7.878 -0.224,-2.837 0.783,-5.764 2.689,-7.83 1.82,-1.977 4.323,-3.065 7.047,-3.065 4.372,0 7.416,2.747 7.752,6.998 0.099,1.263 -0.068,2.58 -0.483,3.815 -0.01,0.029 -0.039,0.05 -0.07,0.05 h -12.903 c 0.25,2.768 2.081,4.415 4.911,4.415 1.604,0 2.873,-0.493 4.383,-1.708 0.026,-0.022 0.072,-0.021 0.103,0.012 l 2.166,2.603 c 0.025,0.031 0.021,0.077 -0.009,0.103 -1.87,1.67 -4.09,2.485 -6.786,2.485 z m -4.525,-10.762 h 9.111 c 0.069,-0.313 0.09,-0.729 0.054,-1.173 -0.162,-2.096 -1.561,-3.346 -3.743,-3.346 -1.525,0 -2.886,0.599 -3.932,1.733 -0.687,0.747 -1.199,1.709 -1.49,2.786 z"
   id="path73"
   inkscape:connector-curvature="0" />
		<path
   d="m 310.98,377.008 c -4.979,0 -8.72,-3.379 -9.097,-8.216 -0.212,-2.704 0.728,-5.412 2.585,-7.426 1.824,-2.02 4.337,-3.133 7.075,-3.133 2.495,0 4.687,0.808 6.338,2.335 1.597,1.478 2.579,3.576 2.763,5.914 0.213,2.719 -0.729,5.412 -2.586,7.393 -1.828,2.02 -4.343,3.133 -7.078,3.133 z m 0.605,-15.076 c -1.381,0 -2.718,0.604 -3.763,1.699 -1.201,1.269 -1.886,3.235 -1.747,5.017 0.226,2.876 2.089,4.662 4.862,4.662 1.431,0 2.804,-0.617 3.766,-1.698 1.199,-1.267 1.883,-3.233 1.747,-5.017 -0.226,-2.876 -2.091,-4.663 -4.865,-4.663 z"
   id="path75"
   inkscape:connector-curvature="0" />
	</g>
</g>
</svg>